# xmcd
#
# Track frame offsets:
#	183
#	17390
#	31798
#	44613
#	61988
#	79320
#	93058
#	106005
#	115633
#
# Disc length: 1718 seconds
#
# Revision: 0
# Processed by: cddbd v1.5.2PL0 Copyright (c) Steve Scherf et al.
# Submitted via: audiograbber 1.83.01
#
DISCID=5b06b409
DTITLE=Dillard and Clark - The Fantastic Expedition Of Dillard and Clark
DYEAR=1968
DGENRE=Country
TTITLE0=Out On The Side
TTITLE1=She Darked The Sun
TTITLE2=Don't Come Rollin'
TTITLE3=Train Leaves Here This Mornin'
TTITLE4=With Care From Someone
TTITLE5=The Radio Song
TTITLE6=Git It On Brother
TTITLE7=In The Plan
TTITLE8=Something's Wrong
EXTD=
EXTT0=
EXTT1=
EXTT2=
EXTT3=
EXTT4=
EXTT5=
EXTT6=
EXTT7=
EXTT8=
PLAYORDER=
